<svg id="Layer_1" data-name="Layer 1" xmlns="http://www.w3.org/2000/svg" viewBox="0 0 200 200"><defs><style>.cls-1{fill:#1c4c8f;}.cls-2{fill:#0f79be;}.cls-3{fill:#fff;}.cls-4{fill:#007ac1;}.cls-5{fill:#007bc2;}.cls-6{fill:#fdbc40;}.cls-7{fill:#edf2f9;}.cls-8{fill:#a79e82;}.cls-9{fill:#7b9197;}</style></defs><title>200x200_template</title><circle class="cls-1" cx="100" cy="100" r="100"/><circle class="cls-2" cx="100" cy="100" r="86.67"/><path class="cls-3" d="M122.59,54c-0.66.55-1.26,1.15-1.89,1.73-2.15,1.78-4.16,3.74-6.36,5.44l-0.07,0c0.05,0.08.12,0.08,0.2,0,2.48-1.37,4.18-3.6,6.24-5.43A15.43,15.43,0,0,1,122.59,54Z"/><path class="cls-3" d="M151.86,46.61c-4.58,4.5-8.92,9.24-13.8,13.42a26.48,26.48,0,0,1-3.68,2.64,27.26,27.26,0,0,0,6.73-4.84c6.11-6.24,12.58-12.12,18.75-18.31a1.59,1.59,0,0,0,.31-1.82,42.52,42.52,0,0,0-8-6.77h-7.36a1.11,1.11,0,0,1-.49.86c-2.3,2-4.58,3.94-6.95,5.82-9.44,7.78-18.66,15.81-28.15,23.88a6.48,6.48,0,0,0,3.06-2,91,91,0,0,1,7.84-6.86,3.42,3.42,0,0,1,3.82-.77,0.94,0.94,0,0,1-.09,1.09c0.26-.22.53-0.43,0.78-0.66A3.32,3.32,0,0,1,125,52c0.87-.39,1.91-0.94,2.63-0.17s-0.37,1.45-.69,2.15a22.85,22.85,0,0,1-3.61,5.54,1.51,1.51,0,0,0-.43,1.23,17,17,0,0,0,2.84-4A37,37,0,0,1,128.1,53a4,4,0,0,1,3.21-1.79c1.7,0,2.23.78,1.45,2.32s-1.82,2.91-2.67,4.4a5,5,0,0,0-.81,1.71,11.8,11.8,0,0,0,2-3c1.57-2.92,2.81-6,4.57-8.85a5.65,5.65,0,0,1,5.16-3,59.43,59.43,0,0,0,6.94-.52,18.85,18.85,0,0,1,3.65-.07c1.31,0.1,1.52.63,0.78,1.74A4,4,0,0,1,151.86,46.61Z"/><path class="cls-3" d="M124.68,66.34c-1,.23-2,0.47-3.09.63-2.48.38-5,.72-7.44,1.09A73.21,73.21,0,0,0,124.68,66.34Z"/><path class="cls-3" d="M132.23,63.84c0.7-.31,1.32-0.74,2-1.09a28.14,28.14,0,0,1-3,1.46C131.59,64.07,131.92,64,132.23,63.84Z"/><path class="cls-3" d="M127,65.76l1.06-.35C127.68,65.53,127.33,65.66,127,65.76Z"/><path class="cls-3" d="M161.27,38.77l-0.39.36q-2.19,2-4.33,4.11c-1.66,1.62-3.29,3.27-5,4.89-3.48,3.4-7,6.74-10.44,10.18a28.49,28.49,0,0,1-10,6.38,56.15,56.15,0,0,1-12,3.22,65,65,0,0,1-6.92.67c-0.44.24-1,0-1.41,0.24l-0.61.07a1.54,1.54,0,0,1-1.38,0h0q-0.17-.1-0.11-0.2a0.15,0.15,0,0,1,.11-0.1l0.57-.09a7.69,7.69,0,0,0,1.09-.24c1.25-.22,2.5-0.48,3.75-0.67,2.46-.37,4.93-0.68,7.38-1.07a41.09,41.09,0,0,0,7.4-1.79,28.2,28.2,0,0,0,9.21-5.47c1.49-1.32,2.94-2.69,4.35-4.09,3.18-3.16,6.32-6.35,9.47-9.53a3.32,3.32,0,0,0,.48-0.67,0.31,0.31,0,0,0-.13-0.26,0.64,0.64,0,0,0-.32,0c-1.6,0-3.2.06-4.8,0.18-2.09.17-4.18,0.4-6.29,0.39a10.66,10.66,0,0,0-1.32.08,3.75,3.75,0,0,0-2.66,1.52c-0.23.31-.42,0.65-0.64,1a42.55,42.55,0,0,0-3.27,6.13c-0.59,1.31-1.27,2.57-1.95,3.84A9.33,9.33,0,0,1,129.56,60a3.2,3.2,0,0,1-.51.42,0.37,0.37,0,0,1-.31,0,0.34,0.34,0,0,1-.16-0.25,1.08,1.08,0,0,1,.07-0.48,18,18,0,0,1,.8-1.63c0.47-.81,1-1.59,1.49-2.39s0.89-1.4,1.29-2.12a8.38,8.38,0,0,0,.52-1.21,0.55,0.55,0,0,0-.45-0.73c-0.33,0-.66,0-1,0a2.59,2.59,0,0,0-2.33,1,19.77,19.77,0,0,0-1.38,1.86c-0.6.93-1.13,1.9-1.69,2.85a27.82,27.82,0,0,1-2.18,3.32,6.14,6.14,0,0,1-.81.82,0.37,0.37,0,0,1-.46,0,0.74,0.74,0,0,1-.28-0.37,1.25,1.25,0,0,1,.06-0.64,4.12,4.12,0,0,1,.49-0.86c0.29-.4.61-0.79,0.94-1.16a14.88,14.88,0,0,0,2.51-3.88,13.19,13.19,0,0,1,1.37-2.26A0.24,0.24,0,0,0,127.4,52a3.33,3.33,0,0,0-2.38.49,2.87,2.87,0,0,1-.45.2c-0.67.21-.44-0.54-0.75-0.7-0.5,0-1,0-1.49,0a3.62,3.62,0,0,0-2.08.92c-1.82,1.61-3.7,3.16-5.53,4.77-0.79.69-1.49,1.48-2.25,2.21a12.94,12.94,0,0,1-1.36,1.22,3.44,3.44,0,0,1-2.13.8,0.19,0.19,0,0,1-.15-0.06,0.38,0.38,0,0,1,0-.27,12.2,12.2,0,0,1,2-2l7.07-6q6.25-5.33,12.51-10.65c2.11-1.79,4.26-3.53,6.4-5.29a3.23,3.23,0,0,1,.42-0.25c0.41-.31.63-0.11,0.78,0.28a3.07,3.07,0,0,1-1.52,2.06,35.12,35.12,0,0,0-3.24,3c1.69-.2,3.37.07,5-0.17a34.35,34.35,0,0,1,6.12-.24,3,3,0,0,0,3.09-1.71c1.57-2.79,3.28-5.51,4.93-8.25,0.15-.25.4-0.68,0.57-0.91a15.63,15.63,0,0,1,1.8,1.45,10.11,10.11,0,0,0-.91,1.37c-0.2.4-.87,0.81-0.34,1.26a1.27,1.27,0,0,0,1.54-.19C156,34.51,160.15,37.15,161.27,38.77Z"/><path class="cls-4" d="M153.12,31.42c-1.58,2.65-2.53,4.56-4.12,7.21-0.74,1.23-1.48,2.45-2.22,3.68a0.76,0.76,0,0,1-.68.38c-1,0-2.1,0-3.14,0a26.61,26.61,0,0,0-4.29.16c-0.33,0-.66,0-1,0.07l-4.13.29a10.8,10.8,0,0,1-1.15,0,0.42,0.42,0,0,1-.18-0.22,0.17,0.17,0,0,1,0-.15,5.93,5.93,0,0,1,.64-0.74c1-.83,1.94-1.63,2.91-2.45a18.27,18.27,0,0,0,2.07-1.88c1.24-1.94,3.22-3.1,4.88-4.59a16.13,16.13,0,0,1,3-2.49C147.71,29.57,149,29.19,153.12,31.42Z"/><path class="cls-5" d="M156.42,34.14a10.89,10.89,0,0,1-.8,1.16,1.76,1.76,0,0,1-1.71.72c-0.43-.08-0.87-0.09-1.3-0.16a0.32,0.32,0,0,1-.12-0.27,1.23,1.23,0,0,1,.18-0.45c0.29-.46.59-0.92,0.91-1.37s0.66-.8.92-1.21C155.27,33.21,155.93,33.76,156.42,34.14Z"/><path class="cls-3" d="M145.77,30.68a0.75,0.75,0,0,1-.07.31,5.51,5.51,0,0,1-.58.58l-6.59,5.74a6.31,6.31,0,0,1-.68.45,0.68,0.68,0,0,0-.68-0.43c0.19-.19.36-0.4,0.57-0.57,2-1.72,4.09-3.43,6.12-5.16,0.33-.28.61-0.61,0.91-0.92h1Z"/><path class="cls-4" d="M31.71,133.94c0-1.38,0-2.77,0-4.15a1,1,0,0,1,.49-1,16.17,16.17,0,0,0,2.61-2Q40,122,45.28,117.31a3.91,3.91,0,0,1,.5-0.43,1.28,1.28,0,0,1,.6-0.25c1.05,0,2.1,0,3.15,0a0.18,0.18,0,0,1,.21.2,0.23,0.23,0,0,1,0,.14c-0.64.61-1.27,1.24-1.95,1.8q-5.17,4.3-10.37,8.56-1.15,1-2.28,1.93a0.47,0.47,0,0,0-.06.29,0.25,0.25,0,0,0,.15.06,3.14,3.14,0,0,0,2.2-.56A15.84,15.84,0,0,0,38.83,128l11.5-10.05a8.8,8.8,0,0,0,.74-0.67,2.15,2.15,0,0,1,2.43-.52,0.3,0.3,0,0,1,.14.26,1.7,1.7,0,0,1-.22.61c-0.48.68-.95,1.37-1.48,2-1.24,1.49-2.53,2.94-3.76,4.43-0.81,1-1.58,2-2.35,3a5.67,5.67,0,0,0-.93,1.75,1.18,1.18,0,0,0,0,.48,0.5,0.5,0,0,0,.2.23,0.22,0.22,0,0,0,.16,0,0.33,0.33,0,0,0,.15-0.07,24,24,0,0,0,4.39-4.51c0.92-1.25,1.82-2.51,2.75-3.75a34.3,34.3,0,0,1,4.2-4.69,1.59,1.59,0,0,1,1.19-.48c1.11,0,2.21,0,3.32.05,0.54,0,.7.28,0.42,0.71l-4.48,7c-0.33.51-.65,1-1,1.55a0.6,0.6,0,0,0,0,.3c0,0.1.31,0.12,0.44,0a11.59,11.59,0,0,0,1-.87,39.69,39.69,0,0,0,4.15-5.17c1.3-1.93,2.49-3.92,3.64-5.94s2.17-3.86,3.26-5.78A34.29,34.29,0,0,1,71.18,104a14.88,14.88,0,0,1,1.18-1.39,1.39,1.39,0,0,1,.72-0.36,13,13,0,0,1,1.49-.12c3-.15,6-0.23,9-0.48,3.48-.29,7-0.29,10.46-0.33a1.12,1.12,0,0,1,.32.06,0.22,0.22,0,0,1,.1.11,0.23,0.23,0,0,1,0,.15,2.69,2.69,0,0,1-.31.38c-0.67.66-1.35,1.31-2,2q-6.5,6.54-13,13.08c-3,3-6.12,5.93-9.39,8.67A67.3,67.3,0,0,1,61,132.07a42.58,42.58,0,0,1-13.73,5.24,47.6,47.6,0,0,1-4.93.68c-1.55.14-3.09,0.2-4.64,0.33s-3.32.21-5,.51a5.29,5.29,0,0,1-.66,0,0.47,0.47,0,0,1-.35-0.29c0-.28,0-0.55-0.05-0.83,0-1.27,0-2.55,0-3.82h0Z"/><path class="cls-4" d="M134.65,92.34a54,54,0,0,0-5.4-.11,0.3,0.3,0,0,1-.23-0.16,0.35,0.35,0,0,1,.08-0.28c0.21-.25.45-0.49,0.67-0.73l15.08-15.87c3.85-4,7.68-8.11,11.54-12.14,1.3-1.36.86-1.27,3-1.24,1.82,0,3.65-.08,5.47-0.11a6,6,0,0,1,2.46.21,0.17,0.17,0,0,1,.1.27,8.69,8.69,0,0,1-.61.77l-5.31,5.93c-0.22.25-.42,0.51-0.63,0.76a0.41,0.41,0,0,0,.11.43,2.4,2.4,0,0,0,.32.08c1.87,0.17,3.74.4,5.62,0.42,0.44,0,.88,0,1.33.05a0.36,0.36,0,0,1,.38.24,0.67,0.67,0,0,1-.13.45c-0.69.93-1.41,1.84-2.11,2.77L162,79.91l-0.7.92a1,1,0,0,1-.69.41c-0.38.05-.77,0.13-1.15,0.15l-7.79.43-2.15.11a8.22,8.22,0,0,0-1.68,1.82c-1.85,2.27-3.69,4.56-5.53,6.83l-0.74.9c-1,1.19-.75,1.06-2.22,1Z"/><path class="cls-4" d="M157.17,135.62l-8-.1c-0.28,0-.55,0-0.82-0.06a0.37,0.37,0,0,1-.21-0.52c0.19-.27.38-0.54,0.58-0.81l4.72-6.21L161,118a7.55,7.55,0,0,1,.64-0.76,0.68,0.68,0,0,1,.44-0.19c0.72,0,1.44,0,2.16.09,0.55,0,1.1.09,1.66,0.12l9.62,0.46a7,7,0,0,1,1,.12,0.32,0.32,0,0,1,.15.26,1.08,1.08,0,0,1-.14.46c-0.43.71-.88,1.41-1.31,2.11q-3.54,5.81-7.07,11.62a27.68,27.68,0,0,0-1.54,2.75,1.18,1.18,0,0,1-1.3.75l-8.13-.23v0Z"/><path class="cls-3" d="M31.7,166.76c0,0.26,0,.52,0,0.78,0-.27,0-0.55,0-0.82C31.71,166.74,31.7,166.75,31.7,166.76Z"/><path class="cls-3" d="M108.88,68.86l1.38,0-1.38.29S108.89,69,108.88,68.86Z"/><path class="cls-3" d="M108.89,68.56s0,0.2,0,.3l-1.07,0Z"/><path class="cls-6" d="M76.36,47a9,9,0,0,1-.58,2.58A7.1,7.1,0,0,1,74,52.5a6,6,0,0,0-.43.49c-0.1.11-.06,0.18,0.08,0.26a8.05,8.05,0,0,0,3.32,1,6.08,6.08,0,0,0,2.91-.51l0.91-.37a0.21,0.21,0,0,1,.13.09,0.17,0.17,0,0,1,0,.13,10.22,10.22,0,0,1-1.54,2.53A7.76,7.76,0,0,1,75.47,59c-0.42.13-.45,0.39-0.13,0.73l0.11,0.12a7.38,7.38,0,0,0,6.21,2.53,0.15,0.15,0,0,1,.12.07,0.27,0.27,0,0,1,0,.16,0.36,0.36,0,0,1-.09.14,13.11,13.11,0,0,1-4,2.32,7.55,7.55,0,0,1-3.26.42,0.37,0.37,0,0,0-.35.56c0.06,0.16.12,0.31,0.18,0.46a7.05,7.05,0,0,0,4.22,4.39,0.74,0.74,0,0,1,.25.2,0.17,0.17,0,0,1,0,.15c-0.08.2,0.16,0.08-.05,0.14a14,14,0,0,1-5.26.43,8.18,8.18,0,0,1-2.64-.92,0.31,0.31,0,0,0-.39.17,7.2,7.2,0,0,0,1.8,6.29,2.16,2.16,0,0,1,.31.38,0.52,0.52,0,0,1,0,.29,0.24,0.24,0,0,1-.15,0,15.32,15.32,0,0,1-3-.78,7.87,7.87,0,0,1-3.85-2.76c-0.28-.39-0.47-0.33-0.71.11a8,8,0,0,0-1.13,3.43,6.27,6.27,0,0,0,.3,2.61,1.07,1.07,0,0,1,.07.8l0,0a0.61,0.61,0,0,1-.31,0,12.32,12.32,0,0,1-3.33-3,7.15,7.15,0,0,1-1.38-3,0.35,0.35,0,0,0-.59-0.23,7.41,7.41,0,0,0-3.39,6c0,0.15-.08.21-0.19,0.18a0.37,0.37,0,0,1-.14-0.07,0.59,0.59,0,0,1-.11-0.13,13.89,13.89,0,0,1-1.49-3,8.1,8.1,0,0,1-.48-3.75c0-.27,0-0.55.06-0.82a0.31,0.31,0,0,0-.34-0.27,7.14,7.14,0,0,0-5,3c-0.25.36-.46,0.75-0.7,1.12a0.2,0.2,0,0,1-.16,0,0.14,0.14,0,0,1-.09-0.09,11.4,11.4,0,0,1,0-5.1,6.57,6.57,0,0,1,1-2.27,2.65,2.65,0,0,0,.3-0.58,0.3,0.3,0,0,0-.12-0.26,7.25,7.25,0,0,0-6.19.9l-0.67.48c-0.12.09-.21,0.07-0.25,0a0.33,0.33,0,0,1,0-.15c0.1-.37.19-0.75,0.31-1.11A13.34,13.34,0,0,1,41.82,67a8.08,8.08,0,0,1,3-3,0.22,0.22,0,0,0,0-.39,8.2,8.2,0,0,0-4.05-1.77,6.55,6.55,0,0,0-2,.1c-0.38.06-.75,0.15-1.23,0.24a3.14,3.14,0,0,1,.34-0.59c0.65-.67,1.29-1.37,2-2a7.44,7.44,0,0,1,4.47-2,0.27,0.27,0,0,0,.29-0.31,7.3,7.3,0,0,0-4.43-4c-0.26-.09-0.54-0.14-0.8-0.21l-0.64-.2A1.1,1.1,0,0,1,39,52.57a13.22,13.22,0,0,1,3.74-1.32,7.75,7.75,0,0,1,3.93.23,0.31,0.31,0,0,0,.38-0.37,7.26,7.26,0,0,0-2.61-5.35c-0.21-.18-0.45-0.32-0.67-0.49s-0.25-.3-0.18-0.4A0.43,0.43,0,0,1,44,44.71a4.17,4.17,0,0,1,.66,0c1,0.12,2.1.19,3.12,0.39a7.53,7.53,0,0,1,3.5,1.8,0.29,0.29,0,0,0,.4-0.12c0.06-.15.14-0.3,0.19-0.46a7.16,7.16,0,0,0-.65-6.07,2.42,2.42,0,0,1-.2-0.45,0.16,0.16,0,0,1,.09-0.11,0.54,0.54,0,0,1,.3,0,12.86,12.86,0,0,1,3.86,2.23,8.08,8.08,0,0,1,2.06,2.78,0.23,0.23,0,0,0,.39,0A8.11,8.11,0,0,0,59.91,41,6.84,6.84,0,0,0,60,38.33c-0.08-.35.09-0.45,0.4-0.42C61,38.6,61.57,39.25,62.07,40a14.28,14.28,0,0,1,1.14,2,6.37,6.37,0,0,1,.53,2.91,0.3,0.3,0,0,0,.46.26,8.41,8.41,0,0,0,2.52-1.56,6.49,6.49,0,0,0,1.95-3,2.92,2.92,0,0,1,.14-0.47,0.57,0.57,0,0,1,.24-0.2c0.11-.06.18,0,0.22,0.15,0.19,0.63.43,1.26,0.57,1.9a17.94,17.94,0,0,1,.38,2.45,7.41,7.41,0,0,1-.6,3.23,2,2,0,0,0-.09.48,0.17,0.17,0,0,0,.11.08,2.44,2.44,0,0,0,.49.07A7.4,7.4,0,0,0,76,45.64C76.88,45.89,76.4,46.5,76.36,47Z"/><path class="cls-7" d="M120.9,56a32.14,32.14,0,0,1-4.25,4.15,6.84,6.84,0,0,1-2.38,1.46c-0.38.1-.48-0.08-0.42-0.41,0.65-.58,1.29-1.18,1.94-1.75q1.78-1.57,3.58-3.13c0.33-.28.69-0.53,1-0.79Q121,55.4,120.9,56Z"/><path class="cls-3" d="M120.9,56a1,1,0,0,0-.49-0.48,16.5,16.5,0,0,1,2-1.89c0.4-.37.82-0.72,1.22-1.09a0.68,0.68,0,0,0,.17-0.6c0.11,0.09.24,0.17,0.34,0.28s0.27,0.28.41,0.42a4.13,4.13,0,0,1-.31.36l-2.85,2.62C121.25,55.76,121.07,55.87,120.9,56Z"/><path class="cls-8" d="M76.36,47c0-.27-0.06-0.54-0.07-0.81a0.6,0.6,0,0,0-.3-0.54c0.08-.14.15-0.28,0.23-0.41a0.19,0.19,0,0,1,.29-0.06,0.2,0.2,0,0,1,.1.1A2.45,2.45,0,0,1,76.36,47Z"/><path class="cls-9" d="M60.4,37.92a0.62,0.62,0,0,0-.4.42,0.65,0.65,0,0,1-.26-0.54,0.38,0.38,0,0,1,.11-0.28,0.31,0.31,0,0,1,.28,0A2,2,0,0,1,60.4,37.92Z"/><path class="cls-3" d="M113.85,61.2l0.42,0.41a0.84,0.84,0,0,1-.56.31c-0.18,0-.41-0.07-0.4-0.17a0.52,0.52,0,0,1,.14-0.28A2.92,2.92,0,0,1,113.85,61.2Z"/><path class="cls-3" d="M110.55,68.24a2.39,2.39,0,0,1-1.09.24A1.92,1.92,0,0,1,110.55,68.24Z"/><path class="cls-6" d="M64,81.49c0.13-.07.22,0,0.23,0.12a0.16,0.16,0,0,1-.12.09c-0.15,0-.17-0.12-0.08-0.24Z"/><path class="cls-3" d="M110.88,68.82a1.53,1.53,0,0,1,.66-0.29c0.25,0,.75.05,0.75,0.05Z"/><path class="cls-3" d="M126,72.22a1,1,0,0,0-.3-0.12,0.93,0.93,0,0,0-.78.19c-0.26.21-.49,0.45-0.73,0.68L111.8,85c-0.24.23-.5,0.44-0.72,0.69a1.59,1.59,0,0,1-1.69.32,0.33,0.33,0,0,1,0-.28,10,10,0,0,1,.78-0.85l9.6-9.18a11,11,0,0,0,1.79-2,3.18,3.18,0,0,0,.31-0.75,0.39,0.39,0,0,0-.39-0.42,2.21,2.21,0,0,0-1.2.51c-0.34.28-.66,0.59-1,0.9L106.6,86c-0.28.27-.57,0.52-0.87,0.76a0.85,0.85,0,0,1-.93-0.11,0.61,0.61,0,0,1-.22-0.59,2.2,2.2,0,0,1,.27-0.77,20.94,20.94,0,0,1,1.32-1.91c1.43-1.76,2.89-3.5,4.33-5.25,0.52-.64,1-1.3,1.5-2a4.94,4.94,0,0,0,.45-1.06,0.5,0.5,0,0,0-.28-0.55,0.55,0.55,0,0,0-.61.06c-0.3.33-.59,0.66-0.87,1l-7.87,9.65-1.06,1.28a1,1,0,0,1-.87.38,8.09,8.09,0,0,1-1,0c-0.41-.06-1,0.24-1.19-0.25a1.19,1.19,0,0,1,.43-1q2.64-4.42,5.29-8.83c0.25-.43.48-0.87,0.72-1.3a0.3,0.3,0,0,0-.23-0.36,0.64,0.64,0,0,0-.61.17,13.05,13.05,0,0,0-.95,1.15,83.43,83.43,0,0,0-4.57,7.12c-0.53.91-1.08,1.81-1.68,2.67-1.71,2.45-3.46,4.87-5.2,7.3-0.32.45-.68,0.88-1,1.32a4.24,4.24,0,0,1-2,1.44,7.74,7.74,0,0,1-2.09.49,28.7,28.7,0,0,1-3.82,0,39,39,0,0,0-6,0c-2,.19-4,0.23-6,0.32-0.39,0-.77,0-1.16,0-0.22,0-.41-0.13-0.37-0.24a1,1,0,0,1,.1-0.29,10.54,10.54,0,0,1,1.74-1.77l5-4.33Q83.14,84.77,89.9,79a48.59,48.59,0,0,1,9.34-6.31,38.65,38.65,0,0,1,8.53-3.19c0.38-.09.74-0.21,1.12-0.32a2.56,2.56,0,0,1,1-.46c-0.09,0-.19,0-0.28,0a1.14,1.14,0,0,1-.68,0,2,2,0,0,0-1.11.1,8.2,8.2,0,0,0-2.27.47,37.56,37.56,0,0,0-10.29,4.52,76.61,76.61,0,0,0-8,5.89c-5.88,4.88-11.74,9.76-17.5,14.78-5.42,4.73-10.88,9.41-16.32,14.12L40.24,120c-2.55,2.21-18.83,15.87-19,16,0,0,2.51,5.16,3.35,6.59,0.88-.09,9.47-1.17,10.35-1.28q5.61-.66,11.15-1.75a53,53,0,0,0,7.22-1.87,25.47,25.47,0,0,0,3.51-1.5,71.94,71.94,0,0,0,9.51-6.06,138.25,138.25,0,0,0,12.37-10.56c4.1-3.88,8.07-7.9,12-11.95s7.79-7.87,11.9-11.58c2-1.82,3.92-3.75,5.83-5.67,1.72-1.73,3.42-3.47,5.13-5.2l11.58-11.67,0.8-.84A0.37,0.37,0,0,0,126,72.22Z"/><path class="cls-3" d="M41.93,149.71a1.1,1.1,0,0,0-1.38,0c-0.33.29-.64,0.61-1,0.92L34,156.13a4.78,4.78,0,0,0,1.11,1.25l5-4.83c0.59-.58,1.15-1.2,1.7-1.82a1.26,1.26,0,0,0,.26-0.59A0.54,0.54,0,0,0,41.93,149.71Z"/><path class="cls-3" d="M49.7,146.89a6.09,6.09,0,0,0-.65.51l-4.11,3.87-8.35,7.89a11.65,11.65,0,0,0,1.26,1.33c2.58-2.35,5.39-4.95,7.94-7.33,1.13-1.06,2.15-2.23,3.2-3.37a6.57,6.57,0,0,0,1.28-1.92,1.59,1.59,0,0,0,.07-0.64A0.48,0.48,0,0,0,49.7,146.89Z"/><path class="cls-3" d="M178.65,95.86c-1.76,2.55-3.58,5.06-5.37,7.59-0.29.41-.59,0.8-0.87,1.21a0.88,0.88,0,0,1-.69.41c-1.32.1-2.65,0.21-4,.3-3,.21-6.08.42-9.12,0.6a1.57,1.57,0,0,0-1.24.68q-2.48,3.23-5,6.43l-3.16,4.07a3.7,3.7,0,0,1-.43.5,1.16,1.16,0,0,1-.43.23,2.06,2.06,0,0,1-.49.06l-8.79.41c-1.49.07-3,.18-4.48,0.25a1.28,1.28,0,0,0-1,.52l-7.44,9.15q-2.25,2.77-4.5,5.55a2.33,2.33,0,0,0-.28.57,0.16,0.16,0,0,0,.05.15,1,1,0,0,0,.32,0c0.78,0,1.55,0,2.32-.1,3.32-.26,6.64-0.19,10-0.31a1.15,1.15,0,0,1,.48.09,0.29,0.29,0,0,1,.09.28c-0.24.37-.5,0.73-0.78,1.07l-10.12,12.53c-0.35.43-.68,0.88-1,1.32a0.28,0.28,0,0,0,.11.4c0.27,0,.55.06,0.83,0.06,2.49,0,5,0,7.48.09,1.94,0,3.87.1,5.81,0.16a0.35,0.35,0,0,1,.26.14,0.33,0.33,0,0,1,0,.29c-0.18.28-.38,0.54-0.59,0.8l-4.58,5.69-7.39,9.19c-0.24.3-.46,0.62-0.68,0.94a0.3,0.3,0,0,0,.19.38c0.33,0.06.65,0.12,1,.16l6.28,0.63,3.31,0.33,4.8,0.45,2.48,0.26a0.72,0.72,0,0,0,.71-0.33q0.54-.84,1.06-1.68l9.63-15.52q0.39-.63.82-1.25a0.64,0.64,0,0,1,.57-0.29l5.64,0.36c0.28,0,.55.06,0.83,0.08,2.49,0.15,5.88.82,8.37,1,0.77-.51,5.17-7.39,8.43-14.08a95.21,95.21,0,0,0,4.71-11.75,74.28,74.28,0,0,0,2.64-10.75,83.44,83.44,0,0,0,1.21-12.08c0.07-2.75,0-5.45-.2-8l-5.65-.44C179.71,94.45,179.19,95.08,178.65,95.86Z"/><path class="cls-3" d="M182.73,74c-0.65-2-1.49-4.22-1.49-4.22s-5.51-15.16-14.92-25.63L155.09,55.42l-21.93,22-9.73,9.76-22.62,22.71-6.44,6.47-14.9,14.93L68.91,141.86l-21.7,21.75-2.83,2.83c1.28,1.06,5.22,4.14,8,6.06l3.48-3.66c0.23-.24.47-0.47,0.68-0.72A1.8,1.8,0,0,1,58,167.5c3.93-.12,7.85-0.27,11.78-0.42,0.88,0,1.77-.1,2.65-0.14a0.35,0.35,0,0,1,.27.11,0.34,0.34,0,0,1,0,.31,5.86,5.86,0,0,1-.51.65L63,178.35c0.75,0.47,3.83,1.74,3.83,1.74s27.49-.24,27.51-0.3a4.12,4.12,0,0,1,.44-0.69l7.2-8.91q1-1.23,2-2.47a0.5,0.5,0,0,0,0-.31,0.19,0.19,0,0,0-.24-0.18c-0.11,0-.22,0-0.33,0l-11.3-.09-2.66,0a0.79,0.79,0,0,1-.28-0.12,0.35,0.35,0,0,1,.06-0.45l0.41-.52,12.43-15.15c0.24-.3.46-0.62,0.69-0.93a0.25,0.25,0,0,0-.16-0.37l-3.65-.08-5.32,0c-1.49,0-3-.06-4.48-0.1-0.2,0-.47.05-0.55-0.22a0.58,0.58,0,0,1,.29-0.55l8.18-9,5.36-5.9a2.88,2.88,0,0,0,.34-0.54,0.18,0.18,0,0,0,0-.16,0.22,0.22,0,0,0-.15-0.06c-0.71-.09-1.43-0.2-2.14-0.25-2.21-.16-4.42-0.29-6.63-0.45-1.1-.08-2.2-0.21-3.3-0.34a0.32,0.32,0,0,1-.11-0.26,9.05,9.05,0,0,1,.72-0.91l4.76-5.1,5.56-5.94c0.3-.32.6-0.65,0.92-1a1,1,0,0,1,.74-0.3c0.78,0,1.55,0,2.33,0,1.27,0,2.54.1,3.82,0.12,2.1,0,4.21,0,6.31.07a1,1,0,0,0,.74-0.3l2.18-2.28,8.33-8.81c0.19-.2.39-0.39,0.59-0.59a0.84,0.84,0,0,1,.59-0.26h1.33l10.14,0h0.83A0.89,0.89,0,0,0,141,106c0.32-.38.63-0.77,0.93-1.16l7.14-9.38a6.94,6.94,0,0,1,1.4-1.62l2-.15c2.54-.17,5.08-0.34,7.62-0.5,1.22-.07,2.43-0.13,3.65-0.15a1.48,1.48,0,0,0,1.26-.66c0.23-.32.47-0.61,0.71-0.92l6.65-8.71c0.24-.31.48-0.6,0.73-0.9a0.68,0.68,0,0,1,.59-0.24L178,82c0.88,0.08,2.65.21,2.65,0.21a34.7,34.7,0,0,1,4.21.42c-0.42-2.23-.74-3.57-0.74-3.57S183.38,76,182.73,74Z"/><path class="cls-3" d="M186.43,95.09h0S186.42,94.95,186.43,95.09Z"/></svg>